<svg width="14" height="14" viewBox="0 0 14 14" fill="none" xmlns="http://www.w3.org/2000/svg">
<path fill-rule="evenodd" clip-rule="evenodd" d="M6.64171 0.70621C6.85235 0.542373 7.14732 0.542373 7.35797 0.70621L12.608 4.78954C12.7501 4.90006 12.8332 5.06999 12.8332 5.25V11.6667C12.8332 12.1308 12.6488 12.5759 12.3206 12.9041C11.9924 13.2323 11.5473 13.4167 11.0832 13.4167H2.9165C2.45237 13.4167 2.00726 13.2323 1.67907 12.9041C1.35088 12.5759 1.1665 12.1308 1.1665 11.6667V5.25C1.1665 5.06999 1.24961 4.90006 1.39171 4.78954L6.64171 0.70621ZM2.33317 5.5353V11.6667C2.33317 11.8214 2.39463 11.9697 2.50403 12.0791C2.61342 12.1885 2.76179 12.25 2.9165 12.25H11.0832C11.2379 12.25 11.3863 12.1885 11.4956 12.0791C11.605 11.9697 11.6665 11.8214 11.6665 11.6667V5.5353L6.99984 1.90567L2.33317 5.5353Z" fill="white"/>
<path fill-rule="evenodd" clip-rule="evenodd" d="M4.6665 7C4.6665 6.67783 4.92767 6.41667 5.24984 6.41667H8.74984C9.072 6.41667 9.33317 6.67783 9.33317 7V12.8333C9.33317 13.1555 9.072 13.4167 8.74984 13.4167C8.42767 13.4167 8.1665 13.1555 8.1665 12.8333V7.58333H5.83317V12.8333C5.83317 13.1555 5.572 13.4167 5.24984 13.4167C4.92767 13.4167 4.6665 13.1555 4.6665 12.8333V7Z" fill="white"/>
</svg>
